<?xml version="1.0" standalone="no"?><!DOCTYPE svg PUBLIC "-//W3C//DTD SVG 1.1//EN" "http://www.w3.org/Graphics/SVG/1.1/DTD/svg11.dtd">
<svg t="1680011599130" class="icon" viewBox="0 0 1024 1024" version="1.1"
    xmlns="http://www.w3.org/2000/svg" p-id="993"
    xmlns:xlink="http://www.w3.org/1999/xlink" width="200" height="200">
    <path d="M176.469333 176.469333a170.666667 170.666667 0 0 1 241.365334 0l35.370666 35.370667A128.128 128.128 0 0 1 490.666667 302.336V384c0 58.944-47.722667 106.666667-106.666667 106.666667h-81.664a128.149333 128.149333 0 0 1-90.538667-37.504l-35.328-35.328a170.666667 170.666667 0 0 1 0-241.365334z m181.034667 60.330667a85.333333 85.333333 0 0 0-120.704 0 85.333333 85.333333 0 0 0 0 120.704l35.285333 35.285333c8.085333 8.042667 18.922667 12.544 30.250667 12.544H384c11.797333 0 21.333333-9.536 21.333333-21.333333v-81.664c0-11.306667-4.48-22.186667-12.501333-30.208L357.504 236.8zM606.165333 176.469333a170.666667 170.666667 0 0 1 241.365334 0 170.666667 170.666667 0 0 1 0 241.365334l-35.370667 35.370666A128.128 128.128 0 0 1 721.664 490.666667H640c-58.944 0-106.666667-47.722667-106.666667-106.666667v-81.664c0-33.941333 13.482667-66.453333 37.504-90.538667l35.328-35.328zM787.2 236.8a85.333333 85.333333 0 0 0-120.704 0l-35.285333 35.285333A42.794667 42.794667 0 0 0 618.666667 302.336V384c0 11.797333 9.536 21.333333 21.333333 21.333333h81.664c11.306667 0 22.186667-4.48 30.208-12.501333l35.328-35.328a85.333333 85.333333 0 0 0 0-120.704zM384 533.333333c58.944 0 106.666667 47.722667 106.666667 106.666667v81.664a128.149333 128.149333 0 0 1-37.504 90.538667l-35.328 35.328a170.666667 170.666667 0 0 1-241.365334 0 170.666667 170.666667 0 0 1 0-241.365334l35.370667-35.370666A128.128 128.128 0 0 1 302.336 533.333333H384z m0 85.333334h-81.664c-11.306667 0-22.186667 4.48-30.208 12.501333L236.8 666.496a85.333333 85.333333 0 0 0 0 120.704 85.333333 85.333333 0 0 0 120.704 0l35.285333-35.285333c8.042667-8.085333 12.544-18.922667 12.544-30.250667V640c0-11.797333-9.536-21.333333-21.333333-21.333333zM721.664 533.333333c33.941333 0 66.453333 13.482667 90.538667 37.504l35.328 35.328a170.666667 170.666667 0 0 1 0 241.365334 170.666667 170.666667 0 0 1-241.365334 0l-35.370666-35.370667A128.128 128.128 0 0 1 533.333333 721.664V640c0-58.944 47.722667-106.666667 106.666667-106.666667h81.664z m0 85.333334H640c-11.797333 0-21.333333 9.536-21.333333 21.333333v81.664c0 11.306667 4.48 22.186667 12.501333 30.208l35.328 35.328a85.333333 85.333333 0 0 0 120.704 0 85.333333 85.333333 0 0 0 0-120.704l-35.285333-35.285333A42.794667 42.794667 0 0 0 721.664 618.666667z" fill="#2C52FF" p-id="994"></path>
</svg>