<?xml version="1.0" standalone="no"?><!DOCTYPE svg PUBLIC "-//W3C//DTD SVG 1.1//EN" "http://www.w3.org/Graphics/SVG/1.1/DTD/svg11.dtd"><svg t="1680011633063" class="icon" viewBox="0 0 1024 1024" version="1.1" xmlns="http://www.w3.org/2000/svg" p-id="1301" xmlns:xlink="http://www.w3.org/1999/xlink" width="200" height="200"><path d="M529.856 116.181333c246.933333 0 408.085333 263.445333 291.370667 480a979.84 979.84 0 0 1-226.709334 281.173334 127.146667 127.146667 0 0 1-165.12-0.042667c-86.101333-73.877333-162.773333-164.352-223.381333-275.2l-1.429333-2.56-1.792-3.306667C86.058667 379.605333 247.168 116.181333 494.144 116.181333h35.712z m0 85.333334h-35.712c-182.869333 0-302.08 194.901333-216.192 354.325333a895.04 895.04 0 0 0 206.954667 256.682667c15.530667 13.248 38.656 13.248 54.122666 0.021333a895.850667 895.850667 0 0 0 207.04-256.789333c85.866667-159.317333-33.365333-354.24-216.213333-354.24z" fill="#2C52FF" p-id="1302"></path><path d="M626.026667 528.064a42.666667 42.666667 0 1 1 75.648 39.466667l-1.130667 2.112-0.256 0.469333-0.576 1.109333a566.954667 566.954667 0 0 1-129.28 159.274667 42.666667 42.666667 0 1 1-55.573333-64.768 481.344 481.344 0 0 0 109.589333-134.72l1.130667-2.133333 0.234666-0.426667 0.213334-0.384z" fill="#2C52FF" p-id="1303"></path></svg>