<?xml version="1.0" standalone="no"?><!DOCTYPE svg PUBLIC "-//W3C//DTD SVG 1.1//EN" "http://www.w3.org/Graphics/SVG/1.1/DTD/svg11.dtd"><svg t="1680011620925" class="icon" viewBox="0 0 1024 1024" version="1.1" xmlns="http://www.w3.org/2000/svg" p-id="1146" xmlns:xlink="http://www.w3.org/1999/xlink" width="200" height="200"><path d="M394.56 198.784a42.666667 42.666667 0 0 1 42.666667 42.666667V792.32a42.666667 42.666667 0 1 1-85.333334 0V241.450667a42.666667 42.666667 0 0 1 42.666667-42.666667z" fill="#2C52FF" p-id="1147"></path><path d="M517.76 149.013333a165.888 165.888 0 1 1 0 331.733334h-123.178667a42.666667 42.666667 0 0 1-42.666666-42.666667V191.68a42.666667 42.666667 0 0 1 42.666666-42.666667h123.178667z m-80.512 246.4h80.512a80.554667 80.554667 0 1 0 0-161.066666h-80.512v161.066666zM743.424 543.253333a42.666667 42.666667 0 1 1 0 85.333334H192.554667a42.666667 42.666667 0 1 1 0-85.333334h550.869333z" fill="#2C52FF" p-id="1148"></path><path d="M788.8 543.232a42.666667 42.666667 0 0 1 42.666667 42.666667v123.221333a165.845333 165.845333 0 0 1-165.845334 165.845333 165.845333 165.845333 0 0 1-165.888-165.845333v-123.221333a42.666667 42.666667 0 0 1 42.666667-42.666667h246.4z m-42.666667 85.333333h-161.066666v80.554667a80.512 80.512 0 0 0 76.394666 80.426667l4.16 0.085333a80.512 80.512 0 0 0 80.512-80.512v-80.554667z" fill="#2C52FF" p-id="1149"></path></svg>