<?xml version="1.0" standalone="no"?><!DOCTYPE svg PUBLIC "-//W3C//DTD SVG 1.1//EN" "http://www.w3.org/Graphics/SVG/1.1/DTD/svg11.dtd"><svg t="1680011644910" class="icon" viewBox="0 0 1024 1024" version="1.1" xmlns="http://www.w3.org/2000/svg" p-id="1455" xmlns:xlink="http://www.w3.org/1999/xlink" width="200" height="200"><path d="M512 165.333333c156.096 0 282.666667 126.570667 282.666667 282.666667v144c0 18.496 5.973333 36.458667 17.066666 51.2l28.821334 38.442667c31.573333 42.197333 1.493333 102.357333-51.221334 102.357333H234.666667c-52.736 0-82.816-60.16-51.2-102.4l28.821333-38.421333c11.072-14.72 17.045333-32.682667 17.045333-51.178667V448c0-156.096 126.570667-282.666667 282.666667-282.666667z m0 85.333334c-108.949333 0-197.333333 88.384-197.333333 197.333333v144a170.453333 170.453333 0 0 1-34.133334 102.4l-3.242666 4.266667H746.666667l-3.157334-4.245334a170.453333 170.453333 0 0 1-34.005333-95.509333l-0.149333-6.912V448c0-108.949333-88.384-197.333333-197.333334-197.333333z" fill="#2C52FF" p-id="1456"></path><path d="M640 698.666667a42.666667 42.666667 0 0 1 42.666667 42.666666 170.666667 170.666667 0 0 1-170.666667 170.666667 170.666667 170.666667 0 0 1-170.666667-170.666667 42.666667 42.666667 0 1 1 85.333334 0 85.333333 85.333333 0 1 0 170.666666 0 42.666667 42.666667 0 0 1 42.666667-42.666666zM512 112a42.666667 42.666667 0 0 1 42.666667 42.666667v42.666666a42.666667 42.666667 0 1 1-85.333334 0v-42.666666a42.666667 42.666667 0 0 1 42.666667-42.666667zM618.666667 426.666667a42.666667 42.666667 0 0 1 42.666666 42.666666v85.333334a42.666667 42.666667 0 1 1-85.333333 0v-85.333334a42.666667 42.666667 0 0 1 42.666667-42.666666z" fill="#2C52FF" p-id="1457"></path></svg>